<svg version="1.1" xmlns="http://www.w3.org/2000/svg" xmlns:xlink="http://www.w3.org/1999/xlink" x="0px" y="0px" viewBox="0 0 1000 1000" enable-background="new 0 0 1000 1000" xml:space="preserve">
    <g>
        <g transform="translate(0.000000,512.000000) scale(0.100000,-0.100000)">
            <path fill="#42b983" d="M7912.3,4974.2c-574.4-49.8-852.1-91.9-1215.9-181.9c-1263.8-314-2261.4-1047.4-3073.2-2257.5c-302.5-451.9-687.4-1169.9-1093.3-2039.2l-126.4-268.1L1605-414c-614.6-495.9-788.9-645.3-764-654.9c19.2-7.6,164.7-40.2,325.5-74.7l289.1-59.4l716.1,601.2l718,603.1L3184.7,15c1240.8,57.4,2466.2,323.6,3483,758.2c279.6,118.7,691.2,325.5,687.4,344.7c0,5.7-214.5,191.5-476.8,411.7c-262.3,222.1-476.8,407.8-476.8,413.6c-1.9,21.1,264.3,36.4,878.9,47.9c628,13.4,922.9-1.9,1164.2-63.2l118.7-30.6l111.1,72.8c585.9,386.8,1020.6,1351.8,1200.6,2669.2c15.3,120.6,26.8,220.2,24.9,222.1c-7.7,7.7-469.1,63.2-704.6,86.2C8984.5,4968.5,8059.7,4987.6,7912.3,4974.2z M9137.7,4445.7c-26.8-13.4-151.3-68.9-277.6-124.5c-997.6-446.1-3017.7-1773.1-5302-3484.9c-229.8-172.3-423.2-310.2-428.9-304.4C3110,553,3228.7,681.3,3560,997.2c407.8,388.7,551.4,520.8,863.6,788.9c1558.6,1336.5,3080.9,2225,4484.4,2613.7C9156.9,4468.7,9220,4482.1,9137.7,4445.7z"/>
            <path fill="#42b983" d="M1656.7-1737.1c-187.6-72.8-337-264.2-367.6-474.9l-11.5-88.1l-392.5-9.6c-421.2-9.6-463.4-19.2-603.2-124.5c-36.4-28.7-91.9-90-124.5-139.8L100-2660v-867.4v-865.5l63.2-91.9c72.8-105.3,212.5-208.7,319.8-237.4c49.8-13.4,639.5-19.2,1755.8-15.3l1681.2,5.7l84.2,44c122.5,67,243.2,199.2,287.2,321.7c38.3,99.6,40.2,143.6,40.2,840.6c0,844.4-3.8,869.3-164.7,1034c-149.4,155.1-206.8,170.4-658.7,181.9l-392.5,9.6l-11.5,88.1c-30.6,214.4-180,404-373.4,474.9c-95.7,36.4-145.5,40.2-540,38.3C1804.1-1698.8,1744.8-1702.6,1656.7-1737.1z"/>
        </g>
    </g>
</svg>